<svg width="32" height="32" viewBox="0 0 32 32" fill="none" xmlns="http://www.w3.org/2000/svg">
  <defs>
    <linearGradient id="smallGradient" x1="0%" y1="0%" x2="100%" y2="100%">
      <stop offset="0%" style="stop-color:#3b82f6;stop-opacity:1" />
      <stop offset="100%" style="stop-color:#8b5cf6;stop-opacity:1" />
    </linearGradient>
  </defs>

  <!-- Simplified Flow Symbol -->
  <g transform="translate(4, 8)">
    <!-- Bronze -->
    <path d="M 0 2 L 6 2 L 8 4 L 6 6 L 0 6 Z" fill="#3b82f6" opacity="0.6"/>
    <!-- Silver -->
    <path d="M 9 2 L 15 2 L 17 4 L 15 6 L 9 6 Z" fill="#6366f1" opacity="0.8"/>
    <!-- Gold -->
    <path d="M 18 2 L 24 2 L 26 4 L 24 6 L 18 6 Z" fill="#8b5cf6"/>
  </g>

  <!-- Simplified Forge/Hammer -->
  <g transform="translate(10, 16)">
    <rect x="4" y="8" width="8" height="2" rx="1" fill="url(#smallGradient)"/>
    <g transform="rotate(-30 8 6)">
      <rect x="6" y="2" width="2" height="6" rx="0.5" fill="#60a5fa"/>
      <rect x="5" y="1" width="4" height="2" rx="0.5" fill="#3b82f6"/>
    </g>
    <circle cx="7" cy="6" r="0.8" fill="#fbbf24"/>
  </g>

  <!-- Medallion Dots -->
  <circle cx="8" cy="4" r="1.5" fill="#cd7f32" opacity="0.5"/>
  <circle cx="16" cy="4" r="1.5" fill="#c0c0c0" opacity="0.5"/>
  <circle cx="24" cy="4" r="1.5" fill="#ffd700" opacity="0.5"/>
</svg>
